<svg width="368" height="160" viewBox="0 0 368 160" fill="none" xmlns="http://www.w3.org/2000/svg">
<rect x="2" y="2" width="364" height="156" rx="14" fill="#A7DAFF"/>
<path d="M44.5877 142.213H16L59.5592 16H93.9383L137.436 142.213H108.848L77.2417 44.8416H76.2559L44.5877 142.213ZM42.8009 92.6028H110.327V113.433H42.8009V92.6028Z" fill="#131D27"/>
<path d="M168.706 144C162.668 144 157.288 142.952 152.564 140.857C147.84 138.721 144.103 135.578 141.351 131.428C138.64 127.237 137.284 122.02 137.284 115.775C137.284 110.516 138.25 106.099 140.18 102.525C142.111 98.9504 144.739 96.0745 148.066 93.897C151.393 91.7195 155.172 90.0761 159.403 88.9668C163.675 87.8575 168.152 87.0769 172.834 86.6249C178.338 86.0498 182.774 85.5156 186.142 85.0226C189.51 84.4885 191.954 83.7079 193.474 82.6808C194.994 81.6537 195.754 80.1335 195.754 78.1204V77.7506C195.754 73.8475 194.521 70.8278 192.057 68.6914C189.633 66.555 186.183 65.4868 181.706 65.4868C176.983 65.4868 173.224 66.5344 170.431 68.6298C167.638 70.684 165.79 73.2724 164.886 76.3948L140.611 74.4227C141.844 68.6708 144.267 63.6996 147.882 59.5089C151.496 55.2772 156.158 52.0315 161.867 49.7718C167.618 47.471 174.272 46.3207 181.829 46.3207C187.087 46.3207 192.118 46.9369 196.924 48.1695C201.771 49.402 206.063 51.3125 209.801 53.9008C213.58 56.4892 216.558 59.817 218.735 63.8844C220.912 67.9108 222 72.7382 222 78.3669V142.213H197.109V129.086H196.37C194.85 132.044 192.817 134.653 190.27 136.913C187.724 139.131 184.664 140.878 181.09 142.151C177.517 143.384 173.389 144 168.706 144ZM176.223 125.882C180.084 125.882 183.493 125.121 186.45 123.601C189.408 122.04 191.728 119.945 193.412 117.315C195.096 114.686 195.938 111.707 195.938 108.379V98.3341C195.117 98.8682 193.987 99.3613 192.55 99.8132C191.153 100.224 189.572 100.614 187.806 100.984C186.04 101.313 184.273 101.621 182.507 101.909C180.741 102.155 179.139 102.381 177.701 102.586C174.621 103.038 171.931 103.757 169.63 104.743C167.33 105.729 165.543 107.065 164.27 108.749C162.997 110.393 162.36 112.447 162.36 114.912C162.36 118.486 163.654 121.218 166.242 123.108C168.87 124.957 172.197 125.882 176.223 125.882Z" fill="#131D27"/>
<rect x="208" y="16" width="144" height="49" rx="8" fill="white"/>
<path d="M228.651 31.5455V49H225.489V34.6222H225.386L221.304 37.2301V34.3324L225.642 31.5455H228.651ZM238.094 49.3324C236.691 49.3324 235.486 48.9773 234.48 48.267C233.48 47.5511 232.711 46.5199 232.171 45.1733C231.637 43.821 231.37 42.1932 231.37 40.2898C231.375 38.3864 231.645 36.767 232.179 35.4318C232.719 34.0909 233.489 33.0682 234.489 32.3636C235.495 31.6591 236.696 31.3068 238.094 31.3068C239.492 31.3068 240.694 31.6591 241.699 32.3636C242.705 33.0682 243.475 34.0909 244.009 35.4318C244.549 36.7727 244.819 38.392 244.819 40.2898C244.819 42.1989 244.549 43.8295 244.009 45.1818C243.475 46.5284 242.705 47.5568 241.699 48.267C240.699 48.9773 239.497 49.3324 238.094 49.3324ZM238.094 46.6648C239.185 46.6648 240.046 46.1278 240.676 45.054C241.313 43.9744 241.631 42.3864 241.631 40.2898C241.631 38.9034 241.486 37.7386 241.196 36.7955C240.907 35.8523 240.497 35.142 239.969 34.6648C239.441 34.1818 238.816 33.9403 238.094 33.9403C237.009 33.9403 236.151 34.4801 235.52 35.5597C234.89 36.6335 234.571 38.2102 234.566 40.2898C234.56 41.6818 234.699 42.8523 234.983 43.8011C235.273 44.75 235.682 45.4659 236.211 45.9489C236.739 46.4261 237.367 46.6648 238.094 46.6648ZM252.415 49.2386C251.148 49.2386 250.023 49.0256 249.04 48.5994C248.062 48.1733 247.295 47.5909 246.739 46.8523C246.187 46.108 245.915 45.2642 245.92 44.321C245.915 43.5881 246.074 42.9148 246.398 42.3011C246.722 41.6875 247.159 41.1761 247.71 40.767C248.267 40.3523 248.886 40.0881 249.568 39.9744V39.8551C248.67 39.6562 247.943 39.1989 247.386 38.483C246.835 37.7614 246.562 36.929 246.568 35.9858C246.562 35.0881 246.812 34.2869 247.318 33.5824C247.824 32.8778 248.517 32.3239 249.398 31.9205C250.278 31.5114 251.284 31.3068 252.415 31.3068C253.534 31.3068 254.531 31.5114 255.406 31.9205C256.287 32.3239 256.98 32.8778 257.486 33.5824C257.997 34.2869 258.253 35.0881 258.253 35.9858C258.253 36.929 257.972 37.7614 257.409 38.483C256.852 39.1989 256.133 39.6562 255.253 39.8551V39.9744C255.935 40.0881 256.548 40.3523 257.094 40.767C257.645 41.1761 258.082 41.6875 258.406 42.3011C258.736 42.9148 258.901 43.5881 258.901 44.321C258.901 45.2642 258.622 46.108 258.065 46.8523C257.508 47.5909 256.741 48.1733 255.764 48.5994C254.793 49.0256 253.676 49.2386 252.415 49.2386ZM252.415 46.8011C253.068 46.8011 253.636 46.6903 254.119 46.4688C254.602 46.2415 254.977 45.9233 255.244 45.5142C255.511 45.1051 255.648 44.6335 255.653 44.0994C255.648 43.5426 255.503 43.0511 255.219 42.625C254.94 42.1932 254.557 41.8551 254.068 41.6108C253.585 41.3665 253.034 41.2443 252.415 41.2443C251.79 41.2443 251.233 41.3665 250.744 41.6108C250.256 41.8551 249.869 42.1932 249.585 42.625C249.307 43.0511 249.17 43.5426 249.176 44.0994C249.17 44.6335 249.301 45.1051 249.568 45.5142C249.835 45.9176 250.21 46.233 250.693 46.4602C251.182 46.6875 251.756 46.8011 252.415 46.8011ZM252.415 38.8494C252.949 38.8494 253.42 38.7415 253.83 38.5256C254.244 38.3097 254.571 38.0085 254.81 37.6222C255.048 37.2358 255.17 36.7898 255.176 36.2841C255.17 35.7841 255.051 35.3466 254.818 34.9716C254.585 34.5909 254.261 34.2983 253.847 34.0938C253.432 33.8835 252.955 33.7784 252.415 33.7784C251.864 33.7784 251.378 33.8835 250.957 34.0938C250.543 34.2983 250.219 34.5909 249.986 34.9716C249.758 35.3466 249.648 35.7841 249.653 36.2841C249.648 36.7898 249.761 37.2358 249.994 37.6222C250.233 38.0028 250.56 38.304 250.974 38.5256C251.395 38.7415 251.875 38.8494 252.415 38.8494ZM266.714 49.3324C265.311 49.3324 264.106 48.9773 263.1 48.267C262.1 47.5511 261.331 46.5199 260.791 45.1733C260.257 43.821 259.99 42.1932 259.99 40.2898C259.995 38.3864 260.265 36.767 260.799 35.4318C261.339 34.0909 262.109 33.0682 263.109 32.3636C264.115 31.6591 265.316 31.3068 266.714 31.3068C268.112 31.3068 269.314 31.6591 270.319 32.3636C271.325 33.0682 272.095 34.0909 272.629 35.4318C273.169 36.7727 273.439 38.392 273.439 40.2898C273.439 42.1989 273.169 43.8295 272.629 45.1818C272.095 46.5284 271.325 47.5568 270.319 48.267C269.319 48.9773 268.118 49.3324 266.714 49.3324ZM266.714 46.6648C267.805 46.6648 268.666 46.1278 269.296 45.054C269.933 43.9744 270.251 42.3864 270.251 40.2898C270.251 38.9034 270.106 37.7386 269.816 36.7955C269.527 35.8523 269.118 35.142 268.589 34.6648C268.061 34.1818 267.436 33.9403 266.714 33.9403C265.629 33.9403 264.771 34.4801 264.14 35.5597C263.51 36.6335 263.191 38.2102 263.186 40.2898C263.18 41.6818 263.319 42.8523 263.603 43.8011C263.893 44.75 264.302 45.4659 264.831 45.9489C265.359 46.4261 265.987 46.6648 266.714 46.6648ZM277.387 35.9091L280.029 40.7415L282.714 35.9091H285.978L282.032 42.4545L286.046 49H282.799L280.029 44.2869L277.285 49H274.012L278.001 42.4545L274.114 35.9091H277.387ZM293.99 31.5455V49H290.828V34.6222H290.725L286.643 37.2301V34.3324L290.981 31.5455H293.99ZM303.041 31.3068C303.876 31.3125 304.689 31.4602 305.479 31.75C306.274 32.0341 306.99 32.5 307.626 33.1477C308.263 33.7898 308.768 34.6506 309.143 35.7301C309.518 36.8097 309.706 38.1449 309.706 39.7358C309.712 41.2358 309.552 42.5767 309.229 43.7585C308.91 44.9347 308.453 45.929 307.856 46.7415C307.26 47.554 306.541 48.1733 305.7 48.5994C304.859 49.0256 303.913 49.2386 302.862 49.2386C301.76 49.2386 300.783 49.0227 299.93 48.5909C299.084 48.1591 298.399 47.5682 297.876 46.8182C297.354 46.0682 297.033 45.2102 296.913 44.2443H300.024C300.183 44.9375 300.507 45.4886 300.996 45.8977C301.49 46.3011 302.112 46.5028 302.862 46.5028C304.072 46.5028 305.004 45.9773 305.658 44.9261C306.311 43.875 306.638 42.4148 306.638 40.5455H306.518C306.24 41.0455 305.879 41.4773 305.436 41.8409C304.993 42.1989 304.49 42.4744 303.927 42.6676C303.371 42.8608 302.78 42.9574 302.155 42.9574C301.132 42.9574 300.212 42.7131 299.393 42.2244C298.581 41.7358 297.936 41.0653 297.459 40.2131C296.987 39.3608 296.748 38.3864 296.743 37.2898C296.743 36.1534 297.004 35.1335 297.527 34.2301C298.055 33.321 298.791 32.6051 299.734 32.0824C300.677 31.554 301.78 31.2955 303.041 31.3068ZM303.05 33.8636C302.436 33.8636 301.882 34.0142 301.388 34.3153C300.899 34.6108 300.513 35.0142 300.229 35.5256C299.95 36.0312 299.811 36.5966 299.811 37.2216C299.817 37.8409 299.956 38.4034 300.229 38.9091C300.507 39.4148 300.885 39.8153 301.362 40.1108C301.845 40.4062 302.396 40.554 303.016 40.554C303.476 40.554 303.905 40.4659 304.302 40.2898C304.7 40.1136 305.047 39.8693 305.342 39.5568C305.643 39.2386 305.876 38.8778 306.041 38.4744C306.212 38.071 306.294 37.6449 306.288 37.196C306.288 36.5994 306.146 36.0483 305.862 35.5426C305.584 35.0369 305.2 34.6307 304.712 34.3239C304.229 34.017 303.675 33.8636 303.05 33.8636ZM311.104 49V46.7159L317.164 40.7756C317.743 40.1903 318.226 39.6705 318.612 39.2159C318.999 38.7614 319.289 38.321 319.482 37.8949C319.675 37.4687 319.772 37.0142 319.772 36.5312C319.772 35.9801 319.647 35.5085 319.397 35.1165C319.147 34.7188 318.803 34.4119 318.365 34.196C317.928 33.9801 317.431 33.8722 316.874 33.8722C316.3 33.8722 315.797 33.9915 315.365 34.2301C314.933 34.4631 314.598 34.7955 314.36 35.2273C314.127 35.6591 314.01 36.1733 314.01 36.7699H311.002C311.002 35.6619 311.255 34.6989 311.76 33.8807C312.266 33.0625 312.962 32.429 313.848 31.9801C314.74 31.5312 315.763 31.3068 316.916 31.3068C318.087 31.3068 319.115 31.5256 320.002 31.9631C320.888 32.4006 321.576 33 322.064 33.7614C322.558 34.5227 322.806 35.392 322.806 36.3693C322.806 37.0227 322.681 37.6648 322.431 38.2955C322.181 38.9261 321.74 39.625 321.11 40.392C320.485 41.1591 319.607 42.0881 318.476 43.179L315.468 46.2386V46.358H323.07V49H311.104ZM331.022 49.3324C329.618 49.3324 328.414 48.9773 327.408 48.267C326.408 47.5511 325.638 46.5199 325.099 45.1733C324.565 43.821 324.297 42.1932 324.297 40.2898C324.303 38.3864 324.573 36.767 325.107 35.4318C325.647 34.0909 326.417 33.0682 327.417 32.3636C328.422 31.6591 329.624 31.3068 331.022 31.3068C332.42 31.3068 333.621 31.6591 334.627 32.3636C335.633 33.0682 336.403 34.0909 336.937 35.4318C337.476 36.7727 337.746 38.392 337.746 40.2898C337.746 42.1989 337.476 43.8295 336.937 45.1818C336.403 46.5284 335.633 47.5568 334.627 48.267C333.627 48.9773 332.425 49.3324 331.022 49.3324ZM331.022 46.6648C332.113 46.6648 332.974 46.1278 333.604 45.054C334.241 43.9744 334.559 42.3864 334.559 40.2898C334.559 38.9034 334.414 37.7386 334.124 36.7955C333.834 35.8523 333.425 35.142 332.897 34.6648C332.368 34.1818 331.743 33.9403 331.022 33.9403C329.937 33.9403 329.079 34.4801 328.448 35.5597C327.817 36.6335 327.499 38.2102 327.493 40.2898C327.488 41.6818 327.627 42.8523 327.911 43.8011C328.201 44.75 328.61 45.4659 329.138 45.9489C329.667 46.4261 330.295 46.6648 331.022 46.6648Z" fill="#131D27"/>
<path d="M343.279 99.859L288.473 61.1682C284.158 58.1225 278.338 61.8245 279.26 67.0281L290.993 133.266C291.915 138.47 298.656 139.967 301.663 135.636L314.668 116.91C315.565 115.619 316.939 114.74 318.487 114.468L340.917 110.531C346.093 109.622 347.582 102.897 343.279 99.859Z" stroke="#131D27" stroke-width="11"/>
<rect x="2" y="2" width="364" height="156" rx="14" stroke="#131D27" stroke-width="4"/>
</svg>
