<svg width="368" height="160" viewBox="0 0 368 160" fill="none" xmlns="http://www.w3.org/2000/svg">
<g clip-path="url(#clip0_287_1898)">
<rect width="368" height="160" rx="16" fill="#131D27"/>
<rect x="-126" y="4" width="152" height="152" rx="4" fill="#FCFCFC"/>
<circle cx="18" cy="18" r="18" transform="matrix(1 0 0 -1 -22 52)" fill="#F3F36E"/>
<circle cx="18" cy="18" r="18" transform="matrix(1 0 0 -1 -22 98)" fill="#F3F36E"/>
<circle cx="18" cy="18" r="18" transform="matrix(1 0 0 -1 -22 144)" fill="#F3F36E"/>
<g clip-path="url(#clip1_287_1898)">
<rect x="30" y="4" width="152" height="152" rx="4" fill="#FCFCFC"/>
<path d="M66.434 147.799C49.0556 147.799 33.6184 143.391 20.1225 134.576C6.7189 125.668 -3.81906 112.955 -11.4914 96.4382C-19.1638 79.9211 -23 60.1563 -23 37.1437C-23 14.224 -19.1638 -5.44803 -11.4914 -21.8723C-3.72662 -38.3894 6.90378 -51.0092 20.3998 -59.7317C33.9882 -68.5469 49.4716 -72.9546 66.85 -72.9546C80.2535 -72.9546 90.9764 -70.7276 99.0185 -66.2735C107.153 -61.8195 113.439 -56.6695 117.876 -50.8236C122.313 -44.9776 125.733 -39.9205 128.137 -35.652H131.736V-70H169.872V144H131.742V110.496H128.137C125.733 114.857 122.221 119.961 117.599 125.807C112.977 131.653 106.598 136.803 98.4639 141.257C90.3293 145.618 79.6527 147.799 66.434 147.799ZM74.4762 113.976C86.678 113.976 96.9849 110.728 105.397 104.233C113.901 97.7373 120.372 88.69 124.809 77.0909C129.246 65.4919 131.464 52.0369 131.464 36.7262C131.464 21.5082 129.292 8.23887 124.947 -3.08183C120.603 -14.4953 114.178 -23.357 105.674 -29.6669C97.2622 -35.9768 86.8629 -39.1317 74.4762 -39.1317C61.5348 -39.1317 50.7657 -35.7912 42.169 -29.1101C33.6647 -22.5219 27.2402 -13.4746 22.8956 -1.96832C18.6434 9.44517 16.5174 22.3433 16.5174 36.7262C16.5174 51.2946 18.6897 64.4248 23.0343 76.1166C27.3789 87.8085 33.8495 97.0413 42.4463 103.815C51.0431 110.589 61.7197 113.976 74.4762 113.976Z" fill="#F3F36E"/>
</g>
<g clip-path="url(#clip2_287_1898)">
<rect x="186" y="4" width="152" height="152" rx="4" fill="#FCFCFC"/>
<path d="M285 144V-30M251.707 137.377L318.294 -23.3779M318.293 137.377L251.706 -23.3779M365.377 90.2934L204.622 23.7065M365.377 23.7066L204.622 90.2935M372 57L198 57M346.518 118.518L223.482 -4.51833M346.518 -4.51825L223.482 118.518" stroke="#F3F36E" stroke-width="10"/>
</g>
<g clip-path="url(#clip3_287_1898)">
<rect x="342" y="4" width="152" height="152" rx="4" fill="#FCFCFC"/>
<path d="M437.434 147.799C420.056 147.799 404.618 143.391 391.122 134.576C377.719 125.668 367.181 112.955 359.509 96.4382C351.836 79.9211 348 60.1563 348 37.1437C348 14.224 351.836 -5.44803 359.509 -21.8723C367.273 -38.3894 377.904 -51.0092 391.4 -59.7317C404.988 -68.5469 420.472 -72.9546 437.85 -72.9546C451.254 -72.9546 461.976 -70.7276 470.019 -66.2735C478.153 -61.8195 484.439 -56.6695 488.876 -50.8236C493.313 -44.9776 496.733 -39.9205 499.137 -35.652H502.736V-70H540.872V144H502.742V110.496H499.137C496.733 114.857 493.221 119.961 488.599 125.807C483.977 131.653 477.598 136.803 469.464 141.257C461.329 145.618 450.653 147.799 437.434 147.799ZM445.476 113.976C457.678 113.976 467.985 110.728 476.397 104.233C484.901 97.7373 491.372 88.69 495.809 77.0909C500.246 65.4919 502.464 52.0369 502.464 36.7262C502.464 21.5082 500.292 8.23887 495.947 -3.08183C491.603 -14.4953 485.178 -23.357 476.674 -29.6669C468.262 -35.9768 457.863 -39.1317 445.476 -39.1317C432.535 -39.1317 421.766 -35.7912 413.169 -29.1101C404.665 -22.5219 398.24 -13.4746 393.896 -1.96832C389.643 9.44517 387.517 22.3433 387.517 36.7262C387.517 51.2946 389.69 64.4248 394.034 76.1166C398.379 87.8085 404.85 97.0413 413.446 103.815C422.043 110.589 432.72 113.976 445.476 113.976Z" fill="#F3F36E"/>
</g>
</g>
<rect x="2" y="2" width="364" height="156" rx="14" stroke="#131D27" stroke-width="4"/>
<defs>
<clipPath id="clip0_287_1898">
<rect width="368" height="160" rx="16" fill="white"/>
</clipPath>
<clipPath id="clip1_287_1898">
<rect x="30" y="4" width="152" height="152" rx="4" fill="white"/>
</clipPath>
<clipPath id="clip2_287_1898">
<rect x="186" y="4" width="152" height="152" rx="4" fill="white"/>
</clipPath>
<clipPath id="clip3_287_1898">
<rect x="342" y="4" width="152" height="152" rx="4" fill="white"/>
</clipPath>
</defs>
</svg>
