<svg width="368" height="160" viewBox="0 0 368 160" fill="none" xmlns="http://www.w3.org/2000/svg">
<g clip-path="url(#clip0_260_1267)">
<rect width="368" height="160" rx="16" fill="#131D27"/>
<g clip-path="url(#clip1_260_1267)">
<rect x="-37" y="4" width="85" height="152" rx="4" fill="#D8EEFF"/>
<path d="M-25.613 152.485C-36.9585 152.485 -47.0367 149.602 -55.8475 143.835C-64.598 138.007 -71.4777 129.69 -76.4866 118.885C-81.4955 108.079 -84 95.1488 -84 80.0938C-84 65.0996 -81.4955 52.2301 -76.4866 41.4852C-71.4174 30.6797 -64.4773 22.4237 -55.6665 16.7174C-46.7953 10.9504 -36.6869 8.06689 -25.3414 8.06689C-16.5909 8.06689 -9.59054 9.52382 -4.34024 12.4377C0.970413 15.3515 5.0741 18.7207 7.97082 22.5451C10.8675 26.3696 13.1004 29.678 14.6695 32.4705H17.0196V9.99983H41.9167V150H17.0231V128.081H14.6695C13.1004 130.935 10.8072 134.273 7.78977 138.098C4.77235 141.922 0.608322 145.291 -4.70232 148.205C-10.013 151.058 -16.9832 152.485 -25.613 152.485ZM-20.3627 130.358C-12.3967 130.358 -5.6679 128.233 -0.176208 123.984C5.37584 119.734 9.60022 113.816 12.4969 106.228C15.3937 98.6394 16.842 89.8371 16.842 79.8207C16.842 69.865 15.4238 61.1841 12.5875 53.7781C9.75109 46.3113 5.55689 40.5139 0.00484467 36.386C-5.48685 32.258 -12.276 30.194 -20.3627 30.194C-28.8115 30.194 -35.8421 32.3794 -41.4544 36.7502C-47.0065 41.0603 -51.2007 46.979 -54.0371 54.5065C-56.8131 61.9733 -58.2011 70.4113 -58.2011 79.8207C-58.2011 89.3514 -56.7829 97.9412 -53.9465 105.59C-51.1102 113.239 -46.8858 119.279 -41.2734 123.711C-35.661 128.142 -28.6908 130.358 -20.3627 130.358Z" fill="#FCFCFC"/>
</g>
<g clip-path="url(#clip2_260_1267)">
<rect x="52" y="4" width="85" height="152" rx="4" fill="#D8EEFF"/>
<path d="M9.45337 10.0107H36.7875L69.471 71.94H70.7757L103.459 10.0107H130.793L82.1921 97.778V150.001H58.0546L58.0546 97.778L9.45337 10.0107Z" fill="#FCFCFC"/>
</g>
<g clip-path="url(#clip3_260_1267)">
<rect x="141" y="4" width="86" height="152" rx="4" fill="#D8EEFF"/>
<path d="M287 144.994L152.005 145M152.005 145L276.729 93.3399M152.005 145L203.662 20.2764M152.005 145L152 10M152.005 145L247.459 49.539" stroke="#FCFCFC" stroke-width="10"/>
</g>
<rect x="231" y="4" width="85" height="152" rx="4" fill="#D8EEFF"/>
<path d="M237 46L310 46C310 26.1177 293.658 10 273.5 10C253.342 10 237 26.1178 237 46Z" fill="#FCFCFC"/>
<path d="M237 151L310 151C310 131.118 293.658 115 273.5 115C253.342 115 237 131.118 237 151Z" fill="#FCFCFC"/>
<path d="M237 116L310 116C310 96.1177 293.658 80 273.5 80C253.342 80 237 96.1178 237 116Z" fill="#FCFCFC"/>
<path d="M237 81L310 81C310 61.1177 293.658 45 273.5 45C253.342 45 237 61.1178 237 81Z" fill="#FCFCFC"/>
<rect x="320" y="4" width="85" height="152" rx="4" fill="#D8EEFF"/>
<path d="M401 80L332 80M332 80L358.405 142.824M332 80L380.79 31.9168M332 80L380.79 128.083M332 80L332 12M332 80L332 148M395.747 106.022L332 79.9999M395.75 53.9803L332.003 80.0028M358.405 17.1765L332 80.0003" stroke="#FCFCFC" stroke-width="10"/>
</g>
<rect x="2" y="2" width="364" height="156" rx="14" stroke="#131D27" stroke-width="4"/>
<defs>
<clipPath id="clip0_260_1267">
<rect width="368" height="160" rx="16" fill="white"/>
</clipPath>
<clipPath id="clip1_260_1267">
<rect x="-37" y="4" width="85" height="152" rx="4" fill="white"/>
</clipPath>
<clipPath id="clip2_260_1267">
<rect x="52" y="4" width="85" height="152" rx="4" fill="white"/>
</clipPath>
<clipPath id="clip3_260_1267">
<rect x="141" y="4" width="86" height="152" rx="4" fill="white"/>
</clipPath>
</defs>
</svg>
