<svg width="368" height="160" viewBox="0 0 368 160" fill="none" xmlns="http://www.w3.org/2000/svg">
<g clip-path="url(#clip0_855_2048)">
<rect width="368" height="160" rx="16" fill="#131D27"/>
<rect x="-105" y="4" width="190" height="74" rx="8" fill="#FCFCFC"/>
<path d="M40 70L40 12L50.7832 12L50.7832 61.1924L77 61.1924V70H40Z" fill="#FCD8FD"/>
<path d="M-1 70L-1 12L9.78319 12L9.78319 61.1924L36 61.1924V70H-1Z" fill="#FCD8FD"/>
<g clip-path="url(#clip1_855_2048)">
<rect x="89" y="4" width="190" height="74" rx="8" fill="#FCFCFC"/>
<rect x="97" y="32" width="49" height="8" fill="#131D27"/>
<rect x="97" y="42" width="49" height="8" fill="#131D27"/>
<circle cx="213.5" cy="41.5" r="57.5" fill="#FCD8FD"/>
</g>
<g clip-path="url(#clip2_855_2048)">
<rect x="283" y="4" width="190" height="74" rx="8" fill="#FCFCFC"/>
<path d="M326.608 71.562C319.494 71.562 313.175 69.7495 307.651 66.1246C302.165 62.4614 297.851 57.2338 294.711 50.4418C291.57 43.6497 290 35.5221 290 26.059C290 16.634 291.57 8.54462 294.711 1.79071C297.889 -5.00135 302.24 -10.1908 307.765 -13.7776C313.327 -17.4026 319.665 -19.2151 326.778 -19.2151C332.264 -19.2151 336.654 -18.2993 339.945 -16.4677C343.275 -14.6362 345.848 -12.5184 347.664 -10.1145C349.48 -7.71055 350.88 -5.63096 351.864 -3.8757H353.338V-18.0001H368.948V69.9999H353.34V56.2226H351.864C350.88 58.016 349.443 60.1147 347.551 62.5187C345.659 64.9226 343.048 67.0403 339.718 68.8719C336.389 70.6653 332.018 71.562 326.608 71.562ZM329.9 57.6536C334.894 57.6536 339.113 56.318 342.556 53.647C346.037 50.976 348.686 47.2556 350.502 42.4859C352.318 37.7162 353.226 32.1833 353.226 25.8873C353.226 19.6294 352.337 14.1729 350.559 9.51764C348.78 4.82425 346.151 1.18019 342.67 -1.41454C339.226 -4.00926 334.97 -5.30662 329.9 -5.30662C324.602 -5.30662 320.194 -3.93294 316.675 -1.18559C313.194 1.52361 310.565 5.24398 308.786 9.97553C307.046 14.6689 306.175 19.9728 306.175 25.8873C306.175 31.878 307.065 37.2774 308.843 42.0852C310.621 46.8931 313.27 50.6898 316.789 53.4753C320.308 56.2608 324.678 57.6536 329.9 57.6536Z" fill="#FCD8FD"/>
</g>
<g clip-path="url(#clip3_855_2048)">
<rect x="-105" y="82" width="190" height="74" rx="8" fill="#FCFCFC"/>
<path d="M6.5 71L6.50001 144M6.50001 144L71.6335 116.064M6.50001 144L-43.351 92.3812M6.50001 144L56.351 92.3811M6.50001 144L-64 144M6.50001 144L77 144M33.4791 76.5571L6.49994 144M-20.4763 76.5541L6.50289 143.997M-58.6332 116.064L6.50028 144" stroke="#FCD8FD" stroke-width="10"/>
</g>
<g clip-path="url(#clip4_855_2048)">
<rect x="89" y="82" width="190" height="74" rx="8" fill="#FCFCFC"/>
<path d="M141.426 163.543L141.426 73.4575C116.89 73.4575 97 93.6238 97 118.5C97 143.376 116.89 163.543 141.426 163.543Z" fill="#FCD8FD"/>
<path d="M271 163.543L271 73.4575C246.464 73.4575 226.574 93.6238 226.574 118.5C226.574 143.376 246.464 163.543 271 163.543Z" fill="#FCD8FD"/>
<path d="M227.809 163.543L227.809 73.4575C203.273 73.4575 183.383 93.6238 183.383 118.5C183.383 143.376 203.273 163.543 227.809 163.543Z" fill="#FCD8FD"/>
<path d="M184.617 163.543L184.617 73.4575C160.081 73.4575 140.191 93.6238 140.191 118.5C140.191 143.376 160.081 163.543 184.617 163.543Z" fill="#FCD8FD"/>
<rect x="222" y="130" width="49" height="8" fill="#131D27"/>
<rect x="222" y="140" width="49" height="8" fill="#131D27"/>
</g>
<g clip-path="url(#clip5_855_2048)">
<rect x="283" y="82" width="190" height="74" rx="8" fill="#FCFCFC"/>
<circle cx="314" cy="90" r="11" fill="#FCD8FD"/>
<circle cx="311" cy="121" r="11" fill="#FCD8FD"/>
<circle cx="286" cy="98" r="11" fill="#FCD8FD"/>
<circle cx="333" cy="138" r="11" fill="#FCD8FD"/>
<circle cx="364" cy="146" r="11" fill="#FCD8FD"/>
<circle cx="297" cy="148" r="11" fill="#FCD8FD"/>
<circle cx="350" cy="108" r="11" fill="#FCD8FD"/>
</g>
</g>
<rect x="2" y="2" width="364" height="156" rx="14" stroke="#131D27" stroke-width="4"/>
<defs>
<clipPath id="clip0_855_2048">
<rect width="368" height="160" rx="16" fill="white"/>
</clipPath>
<clipPath id="clip1_855_2048">
<rect x="89" y="4" width="190" height="74" rx="8" fill="white"/>
</clipPath>
<clipPath id="clip2_855_2048">
<rect x="283" y="4" width="190" height="74" rx="8" fill="white"/>
</clipPath>
<clipPath id="clip3_855_2048">
<rect x="-105" y="82" width="190" height="74" rx="8" fill="white"/>
</clipPath>
<clipPath id="clip4_855_2048">
<rect x="89" y="82" width="190" height="74" rx="8" fill="white"/>
</clipPath>
<clipPath id="clip5_855_2048">
<rect x="283" y="82" width="190" height="74" rx="8" fill="white"/>
</clipPath>
</defs>
</svg>
