<svg width="368" height="160" viewBox="0 0 368 160" fill="none" xmlns="http://www.w3.org/2000/svg">
<g clip-path="url(#clip0_260_1502)">
<rect width="368" height="160" rx="16" fill="#131D27"/>
<rect x="-136" y="4" width="157" height="48" rx="8" fill="#FCFCFC"/>
<g clip-path="url(#clip1_260_1502)">
<rect x="25" y="4" width="157" height="48" rx="8" fill="#FCFCFC"/>
<circle cx="74.5" cy="52.5" r="41.5" fill="#F3F36E"/>
<circle cx="132.5" cy="52.5" r="41.5" fill="#F3F36E"/>
<rect x="33" y="26" width="32" height="8" fill="#131D27"/>
<rect x="33" y="36" width="32" height="8" fill="#131D27"/>
</g>
<g clip-path="url(#clip2_260_1502)">
<rect x="186" y="4" width="157" height="48" rx="8" fill="#FCFCFC"/>
<path d="M264.5 98V-43M237.521 92.6332L291.479 -37.6338M291.479 92.6332L237.521 -37.6338M329.633 54.4791L199.366 0.520753M329.633 0.520885L199.366 54.4793M335 27.5L194 27.5M314.351 77.351L214.649 -22.3511M314.351 -22.351L214.649 77.3511" stroke="#F3F36E" stroke-width="9"/>
</g>
<rect x="347" y="4" width="157" height="48" rx="8" fill="#FCFCFC"/>
<rect x="-136" y="56" width="157" height="48" rx="8" fill="#F3F36E"/>
<rect x="25" y="56" width="157" height="48" rx="8" fill="#FCFCFC"/>
<path d="M125 96L125 64C116.163 64 109 71.1634 109 80C109 88.8366 116.163 96 125 96Z" fill="#F3F36E"/>
<path d="M174 96L174 64C165.163 64 158 71.1634 158 80C158 88.8366 165.163 96 174 96Z" fill="#F3F36E"/>
<path d="M158 96L158 64C149.163 64 142 71.1634 142 80C142 88.8366 149.163 96 158 96Z" fill="#F3F36E"/>
<path d="M142 96L142 64C132.611 64 125 71.1634 125 80C125 88.8366 132.611 96 142 96Z" fill="#F3F36E"/>
<path d="M109 96L109 64C99.6112 64 92 71.1634 92 80C92 88.8366 99.6112 96 109 96Z" fill="#F3F36E"/>
<rect x="33" y="88" width="32" height="8" fill="#131D27"/>
<rect x="186" y="56" width="157" height="48" rx="8" fill="#FCFCFC"/>
<rect x="303" y="64" width="32" height="8" fill="#131D27"/>
<rect x="186" y="56" width="79" height="48" fill="#F3F36E"/>
<rect x="347" y="56" width="157" height="48" rx="8" fill="#F3F36E"/>
<rect x="-136" y="108" width="157" height="48" rx="8" fill="#FCFCFC"/>
<g clip-path="url(#clip3_260_1502)">
<rect x="25" y="108" width="157" height="48" rx="8" fill="#FCFCFC"/>
<path d="M68.9979 149.615C61.6143 149.615 55.0555 147.741 49.3215 143.993C43.6267 140.205 39.1494 134.799 35.8896 127.775C32.6299 120.752 31 112.347 31 102.561C31 92.8149 32.6299 84.4497 35.8896 77.4656C39.1887 70.4419 43.7052 65.0756 49.4393 61.3665C55.2126 57.6179 61.791 55.7437 69.1746 55.7437C74.8694 55.7437 79.4252 56.6907 82.8421 58.5847C86.2982 60.4787 88.9689 62.6686 90.854 65.1545C92.7392 67.6404 94.1923 69.7909 95.2135 71.606H96.7429V57.0001H112.946V148H96.7452V133.753H95.2135C94.1923 135.608 92.6999 137.778 90.7362 140.264C88.7725 142.75 86.0626 144.94 82.6064 146.834C79.1503 148.688 74.6141 149.615 68.9979 149.615ZM72.4147 135.233C77.5989 135.233 81.978 133.852 85.552 131.09C89.1652 128.328 91.9144 124.48 93.7996 119.548C95.6848 114.616 96.6273 108.894 96.6273 102.384C96.6273 95.9124 95.7044 90.2698 93.8585 85.4559C92.0126 80.6025 89.2831 76.8342 85.6698 74.151C82.0959 71.4679 77.6775 70.1263 72.4147 70.1263C66.9163 70.1263 62.3409 71.5468 58.6884 74.3878C55.0751 77.1893 52.3456 81.0366 50.4997 85.9294C48.6931 90.7828 47.7898 96.2675 47.7898 102.384C47.7898 108.579 48.7127 114.162 50.5586 119.134C52.4045 124.106 55.1537 128.032 58.8062 130.912C62.4587 133.793 66.9949 135.233 72.4147 135.233Z" fill="#F3F36E"/>
<path d="M118 148L118 57H134.321V134.181H174V148H118Z" fill="#F3F36E"/>
</g>
<g clip-path="url(#clip4_260_1502)">
<rect x="186" y="108" width="157" height="48" rx="8" fill="#FCFCFC"/>
<circle cx="277.5" cy="131.5" r="41.5" fill="#F3F36E"/>
<rect x="303" y="130" width="32" height="8" fill="#131D27"/>
<rect x="303" y="140" width="32" height="8" fill="#131D27"/>
</g>
<rect x="347" y="108" width="157" height="48" rx="8" fill="#FCFCFC"/>
</g>
<rect x="2" y="2" width="364" height="156" rx="14" stroke="#131D27" stroke-width="4"/>
<defs>
<clipPath id="clip0_260_1502">
<rect width="368" height="160" rx="16" fill="white"/>
</clipPath>
<clipPath id="clip1_260_1502">
<rect x="25" y="4" width="157" height="48" rx="8" fill="white"/>
</clipPath>
<clipPath id="clip2_260_1502">
<rect x="186" y="4" width="157" height="48" rx="8" fill="white"/>
</clipPath>
<clipPath id="clip3_260_1502">
<rect x="25" y="108" width="157" height="48" rx="8" fill="white"/>
</clipPath>
<clipPath id="clip4_260_1502">
<rect x="186" y="108" width="157" height="48" rx="8" fill="white"/>
</clipPath>
</defs>
</svg>
