<svg width="383" height="159" viewBox="0 0 383 159" fill="none" xmlns="http://www.w3.org/2000/svg">
<path d="M65.4447 161.769C52.7278 161.769 41.4314 158.556 31.5555 152.13C21.7473 145.636 14.036 136.369 8.42157 124.329C2.80719 112.288 0 97.8803 0 81.1048C0 64.3969 2.80719 50.0566 8.42157 38.0837C14.1036 26.0433 21.8826 16.8438 31.7585 10.4853C41.702 4.05924 53.0322 0.846191 65.7491 0.846191C75.5574 0.846191 83.404 2.46963 89.289 5.71649C95.2416 8.96336 99.8413 12.7176 103.088 16.9791C106.335 21.2406 108.838 24.9272 110.597 28.0387H113.231V3.00004H141.137V159H113.235V134.577H110.597C108.838 137.756 106.267 141.476 102.885 145.738C99.5031 149.999 94.8357 153.754 88.8831 157C82.9305 160.18 75.1177 161.769 65.4447 161.769ZM71.3297 137.113C80.2586 137.113 87.8008 134.746 93.9563 130.011C100.18 125.276 104.915 118.681 108.161 110.225C111.408 101.77 113.032 91.9615 113.032 80.8004C113.032 69.7069 111.442 60.034 108.263 51.7815C105.084 43.4614 100.382 37.0015 94.1593 32.4017C88.0037 27.802 80.3939 25.5021 71.3297 25.5021C61.8597 25.5021 53.9792 27.9373 47.6884 32.8076C41.4653 37.6102 36.7641 44.2055 33.5848 52.5932C30.4732 60.9133 28.9174 70.3157 28.9174 80.8004C28.9174 91.4204 30.5071 100.992 33.6863 109.515C36.8655 118.038 41.6005 124.768 47.8913 129.706C54.1822 134.644 61.9949 137.113 71.3297 137.113Z" fill="#EAECEF"/>
<path d="M149.031 159L149.031 3L177.291 3L177.291 135.311L245.998 135.311L245.998 159L149.031 159Z" fill="#EAECEF"/>
<path d="M253.798 159L253.798 3L282.057 3V135.311L350.764 135.311V159L253.798 159Z" fill="#EAECEF"/>
<path d="M301.884 3.01208L333.798 3.01208L371.957 72.019H373.481L411.64 3.01208L443.554 3.01208L386.81 100.81V159.001H358.628V100.81L301.884 3.01208Z" fill="#EAECEF"/>
</svg>
