<svg width="400" height="158" viewBox="0 0 400 158" fill="none" xmlns="http://www.w3.org/2000/svg">
<g clip-path="url(#clip0_635_1962)">
<path d="M400 53.9585V158.155H375.628V99.9637L318.884 2.16586H350.798L388.957 71.1728H390.481L400 53.9585Z" fill="white"/>
<path fill-rule="evenodd" clip-rule="evenodd" d="M48.5555 151.284C58.4314 157.71 69.7278 160.923 82.4447 160.923C92.1177 160.923 99.9305 159.333 105.883 156.154C111.836 152.907 116.503 149.153 119.885 144.892C123.267 140.63 125.838 136.91 127.597 133.731H130.235V158.154H158.137V2.15385H130.231V27.1925H127.597C125.838 24.081 123.335 20.3944 120.088 16.1329C116.841 11.8714 112.242 8.11717 106.289 4.8703C100.404 1.62343 92.5574 0 82.7491 0C70.0322 0 58.702 3.21305 48.7585 9.63914C38.8826 15.9976 31.1036 25.1971 25.4216 37.2376C19.8072 49.2104 17 63.5507 17 80.2586C17 97.0341 19.8072 111.442 25.4216 123.483C31.036 135.523 38.7473 144.79 48.5555 151.284ZM110.956 129.165C104.801 133.9 97.2586 136.267 88.3297 136.267C78.9949 136.267 71.1822 133.798 64.8913 128.86C58.6005 123.922 53.8655 117.192 50.6863 108.669C47.5071 100.146 45.9174 90.5742 45.9174 79.9542C45.9174 69.4695 47.4732 60.0671 50.5848 51.747C53.7641 43.3593 58.4653 36.764 64.6884 31.9614C70.9792 27.0911 78.8597 24.6559 88.3297 24.6559C97.3939 24.6559 105.004 26.9558 111.159 31.5555C117.382 36.1553 122.084 42.6152 125.263 50.9353C128.442 59.1878 130.032 68.8607 130.032 79.9542C130.032 91.1153 128.408 100.924 125.161 109.379C121.915 117.834 117.18 124.43 110.956 129.165Z" fill="white"/>
<path d="M166.031 2.15385V158.154H262.998V134.464H194.29V2.15385H166.031Z" fill="white"/>
<path d="M270.798 158.154V2.15385H299.057V134.464H367.764V158.154H270.798Z" fill="white"/>
</g>
<defs>
<clipPath id="clip0_635_1962">
<rect width="400" height="158" fill="white"/>
</clipPath>
</defs>
</svg>
