<svg width="24" height="24" viewBox="0 0 24 24" fill="none" xmlns="http://www.w3.org/2000/svg">
<mask id="path-1-inside-1_1315_1655" fill="white">
<path fill-rule="evenodd" clip-rule="evenodd" d="M12 0C5.37258 0 0 5.37258 0 12C0 13.9946 1.93574 15.4161 3.83886 14.819L7.63481 13.6281C8.46297 13.3683 9.36629 13.6272 9.93115 14.2862C10.464 14.9078 10.6014 15.7764 10.2865 16.5322L9.03072 19.5461C8.14789 21.6649 9.70462 24 12 24C18.6274 24 24 18.6274 24 12C24 5.37258 18.6274 0 12 0ZM13.7998 4.20009C13.7998 5.1942 12.9939 6.00009 11.9998 6.00009C11.0057 6.00009 10.1998 5.1942 10.1998 4.20009C10.1998 3.20598 11.0057 2.40009 11.9998 2.40009C12.9939 2.40009 13.7998 3.20598 13.7998 4.20009ZM5.39991 10.1999C6.39402 10.1999 7.19991 9.39402 7.19991 8.39991C7.19991 7.4058 6.39402 6.59991 5.39991 6.59991C4.4058 6.59991 3.59991 7.4058 3.59991 8.39991C3.59991 9.39402 4.4058 10.1999 5.39991 10.1999ZM20.4002 8.39991C20.4002 9.39402 19.5943 10.1999 18.6002 10.1999C17.6061 10.1999 16.8002 9.39402 16.8002 8.39991C16.8002 7.4058 17.6061 6.59991 18.6002 6.59991C19.5943 6.59991 20.4002 7.4058 20.4002 8.39991ZM18.6002 17.4002C19.5943 17.4002 20.4002 16.5943 20.4002 15.6002C20.4002 14.6061 19.5943 13.8002 18.6002 13.8002C17.6061 13.8002 16.8002 14.6061 16.8002 15.6002C16.8002 16.5943 17.6061 17.4002 18.6002 17.4002Z"/>
</mask>
<path fill-rule="evenodd" clip-rule="evenodd" d="M12 0C5.37258 0 0 5.37258 0 12C0 13.9946 1.93574 15.4161 3.83886 14.819L7.63481 13.6281C8.46297 13.3683 9.36629 13.6272 9.93115 14.2862C10.464 14.9078 10.6014 15.7764 10.2865 16.5322L9.03072 19.5461C8.14789 21.6649 9.70462 24 12 24C18.6274 24 24 18.6274 24 12C24 5.37258 18.6274 0 12 0ZM13.7998 4.20009C13.7998 5.1942 12.9939 6.00009 11.9998 6.00009C11.0057 6.00009 10.1998 5.1942 10.1998 4.20009C10.1998 3.20598 11.0057 2.40009 11.9998 2.40009C12.9939 2.40009 13.7998 3.20598 13.7998 4.20009ZM5.39991 10.1999C6.39402 10.1999 7.19991 9.39402 7.19991 8.39991C7.19991 7.4058 6.39402 6.59991 5.39991 6.59991C4.4058 6.59991 3.59991 7.4058 3.59991 8.39991C3.59991 9.39402 4.4058 10.1999 5.39991 10.1999ZM20.4002 8.39991C20.4002 9.39402 19.5943 10.1999 18.6002 10.1999C17.6061 10.1999 16.8002 9.39402 16.8002 8.39991C16.8002 7.4058 17.6061 6.59991 18.6002 6.59991C19.5943 6.59991 20.4002 7.4058 20.4002 8.39991ZM18.6002 17.4002C19.5943 17.4002 20.4002 16.5943 20.4002 15.6002C20.4002 14.6061 19.5943 13.8002 18.6002 13.8002C17.6061 13.8002 16.8002 14.6061 16.8002 15.6002C16.8002 16.5943 17.6061 17.4002 18.6002 17.4002Z" fill="#131D27"/>
<path d="M3.83886 14.819L3.24018 12.9107L3.24018 12.9107L3.83886 14.819ZM7.63481 13.6281L8.23349 15.5364L8.23349 15.5364L7.63481 13.6281ZM9.93115 14.2862L8.41264 15.5877L8.41264 15.5877L9.93115 14.2862ZM10.2865 16.5322L8.44036 15.763L8.44036 15.763L10.2865 16.5322ZM9.03072 19.5461L10.8769 20.3153L10.8769 20.3153L9.03072 19.5461ZM2 12C2 6.47715 6.47715 2 12 2V-2C4.26801 -2 -2 4.26801 -2 12H2ZM3.24018 12.9107C2.62536 13.1036 2 12.6444 2 12H-2C-2 15.3448 1.24611 17.7285 4.43754 16.7273L3.24018 12.9107ZM7.03613 11.7198L3.24018 12.9107L4.43754 16.7273L8.23349 15.5364L7.03613 11.7198ZM11.4497 12.9846C10.364 11.718 8.62785 11.2205 7.03613 11.7198L8.23349 15.5364C8.2981 15.5161 8.36857 15.5363 8.41264 15.5877L11.4497 12.9846ZM12.1327 17.3014C12.7379 15.8489 12.4737 14.1793 11.4497 12.9846L8.41264 15.5877C8.4542 15.6362 8.46492 15.704 8.44036 15.763L12.1327 17.3014ZM10.8769 20.3153L12.1327 17.3014L8.44036 15.763L7.18457 18.7769L10.8769 20.3153ZM12 22C11.1318 22 10.5429 21.1168 10.8769 20.3153L7.18457 18.7769C5.75283 22.213 8.27746 26 12 26V22ZM22 12C22 17.5228 17.5228 22 12 22V26C19.732 26 26 19.732 26 12H22ZM12 2C17.5228 2 22 6.47715 22 12H26C26 4.26801 19.732 -2 12 -2V2ZM11.9998 8.00009C14.0985 8.00009 15.7998 6.29877 15.7998 4.20009H11.7998C11.7998 4.08963 11.8894 4.00009 11.9998 4.00009V8.00009ZM8.19982 4.20009C8.19982 6.29877 9.90114 8.00009 11.9998 8.00009V4.00009C12.1103 4.00009 12.1998 4.08963 12.1998 4.20009H8.19982ZM11.9998 0.40009C9.90114 0.40009 8.19982 2.10141 8.19982 4.20009H12.1998C12.1998 4.31055 12.1103 4.40009 11.9998 4.40009V0.40009ZM15.7998 4.20009C15.7998 2.10141 14.0985 0.40009 11.9998 0.40009V4.40009C11.8894 4.40009 11.7998 4.31055 11.7998 4.20009H15.7998ZM5.19991 8.39991C5.19991 8.28945 5.28945 8.19991 5.39991 8.19991V12.1999C7.49859 12.1999 9.19991 10.4986 9.19991 8.39991H5.19991ZM5.39991 8.59991C5.28945 8.59991 5.19991 8.51037 5.19991 8.39991H9.19991C9.19991 6.30123 7.49859 4.59991 5.39991 4.59991V8.59991ZM5.59991 8.39991C5.59991 8.51037 5.51037 8.59991 5.39991 8.59991V4.59991C3.30123 4.59991 1.59991 6.30123 1.59991 8.39991H5.59991ZM5.39991 8.19991C5.51037 8.19991 5.59991 8.28945 5.59991 8.39991H1.59991C1.59991 10.4986 3.30123 12.1999 5.39991 12.1999V8.19991ZM18.6002 12.1999C20.6989 12.1999 22.4002 10.4986 22.4002 8.39991H18.4002C18.4002 8.28945 18.4897 8.19991 18.6002 8.19991V12.1999ZM14.8002 8.39991C14.8002 10.4986 16.5015 12.1999 18.6002 12.1999V8.19991C18.7106 8.19991 18.8002 8.28945 18.8002 8.39991H14.8002ZM18.6002 4.59991C16.5015 4.59991 14.8002 6.30123 14.8002 8.39991H18.8002C18.8002 8.51037 18.7106 8.59991 18.6002 8.59991V4.59991ZM22.4002 8.39991C22.4002 6.30123 20.6989 4.59991 18.6002 4.59991V8.59991C18.4897 8.59991 18.4002 8.51037 18.4002 8.39991H22.4002ZM18.4002 15.6002C18.4002 15.4897 18.4897 15.4002 18.6002 15.4002V19.4002C20.6989 19.4002 22.4002 17.6989 22.4002 15.6002H18.4002ZM18.6002 15.8002C18.4897 15.8002 18.4002 15.7106 18.4002 15.6002H22.4002C22.4002 13.5015 20.6989 11.8002 18.6002 11.8002V15.8002ZM18.8002 15.6002C18.8002 15.7106 18.7106 15.8002 18.6002 15.8002V11.8002C16.5015 11.8002 14.8002 13.5015 14.8002 15.6002H18.8002ZM18.6002 15.4002C18.7106 15.4002 18.8002 15.4897 18.8002 15.6002H14.8002C14.8002 17.6989 16.5015 19.4002 18.6002 19.4002V15.4002Z" fill="#131D27" mask="url(#path-1-inside-1_1315_1655)"/>
</svg>
