<svg width="24" height="24" viewBox="0 0 24 24" fill="none" xmlns="http://www.w3.org/2000/svg">
<path fill-rule="evenodd" clip-rule="evenodd" d="M12 0C18.6274 0 24 5.37258 24 12C24 14.5025 21.9728 16.5319 19.4703 16.5345L13.8523 16.5406C13.0103 16.5415 12.2612 17.0753 11.9854 17.8709C11.7322 18.6013 11.9276 19.4122 12.4858 19.9471L13.3108 20.7376C14.5435 21.9189 13.7073 24 12 24C5.37258 24 0 18.6274 0 12C0 5.37258 5.37258 0 12 0ZM13 4.6C13 5.70457 13.8954 6.6 15 6.6C16.1046 6.6 17 5.70457 17 4.6C17 3.49543 16.1046 2.6 15 2.6C13.8954 2.6 13 3.49543 13 4.6ZM19 12C17.8954 12 17 11.1046 17 10C17 8.89543 17.8954 8 19 8C20.1046 8 21 8.89543 21 10C21 11.1046 20.1046 12 19 12ZM6.3 4.6001C6.3 5.70467 7.19543 6.6001 8.3 6.6001C9.40457 6.6001 10.3 5.70467 10.3 4.6001C10.3 3.49553 9.40457 2.6001 8.3 2.6001C7.19543 2.6001 6.3 3.49553 6.3 4.6001ZM4 12C2.89543 12 2 11.1046 2 10C2 8.89543 2.89543 8 4 8C5.10457 8 6 8.89543 6 10C6 11.1046 5.10457 12 4 12Z" fill="#131D27"/>
</svg>
